# xmcd
#
# Track frame offsets: 
#        150
#        23389
#        52839
#        82724
#        106905
#        132872
#        150524
#        179104
#        208046
#        239106
#
# Disc length: 3432 seconds
#
# Revision: 0
# Processed by: cddbd v1.5.2PL0 Copyright (c) Steve Scherf et al.
# Submitted via: ExactAudioCopy v1.0b3
#
DISCID=760d660a
DTITLE=Yen Khoa - Sao Long Con Thuong
DYEAR=1999
DGENRE=
TTITLE0=Thu tinh khong gui
TTITLE1=Hoa no ve dem
TTITLE2=Tam su doi toi
TTITLE3=Anh ve voi nguoi
TTITLE4=Sao long con thuong
TTITLE5=Tinh phu
TTITLE6=Duong xua loi cu
TTITLE7=Ngay sau se ra sao
TTITLE8=Nhat ky doi toi
TTITLE9=Cho nguoi tinh nho
EXTD=
EXTT0=
EXTT1=
EXTT2=
EXTT3=
EXTT4=
EXTT5=
EXTT6=
EXTT7=
EXTT8=
EXTT9=
PLAYORDER=
